<svg xmlns="http://www.w3.org/2000/svg" xmlns:xlink="http://www.w3.org/1999/xlink" version="1.1" width="1000" height="600" viewBox="0 0 1000 800" xml:space="preserve">
<desc>Amazing Recipes Logo</desc>
<defs>
</defs>
<rect x="0" y="0" width="100%" height="100%" fill="rgba(102,51,102,0)"/>
<g transform="matrix(1 0 0 1 484.375 290.0717)" style="" id="156356">
		
<path xml:space="preserve" font-family="Mrs Saint Delafield" font-size="200" style="stroke: none; stroke-width: 0; stroke-dasharray: none; stroke-linecap: butt; stroke-dashoffset: 0; stroke-linejoin: miter; stroke-miterlimit: 4; is-custom-font: none; font-file-url: none; fill: rgb(255,255,255); fill-rule: nonzero; opacity: 1; white-space: pre;" d="M-269.80 8.03L-269.80 8.03Q-269.80 13.03-251.60 17.63L-251.60 17.63Q-241.20 20.03-226.40 21.63L-226.40 21.63Q-245.00 5.03-263.20 5.03L-263.20 5.03Q-269.80 5.03-269.80 8.03ZM-190.60 61.43L-190.60 61.43Q-186.40 61.43-169.80 28.43L-169.80 28.43Q-192.20 28.83-197.70 28.83Q-203.20 28.83-213.20 28.43L-213.20 28.43Q-201.40 42.63-194.00 58.63L-194.00 58.63Q-192.80 61.43-190.60 61.43ZM-128.00-73.97L-128.00-73.97Q-134.60-73.97-145.60-59.87Q-156.60-45.77-174.70-19.97Q-192.80 5.83-208.40 22.83L-208.40 22.83Q-194.40 23.23-183.90 23.23Q-173.40 23.23-167.00 22.83L-167.00 22.83Q-152.80-5.17-139.30-36.37Q-125.80-67.57-125.80-72.17L-125.80-72.17Q-125.80-73.97-128.00-73.97ZM-156.20 22.43L-156.20 22.43L-114.60 19.43Q-113.00 19.43-113.00 21.03Q-113.00 22.63-115.70 24.43Q-118.40 26.23-126.20 26.83Q-134.00 27.43-159.20 28.03L-159.20 28.03Q-179.60 67.83-188.00 67.83L-188.00 67.83Q-193.60 67.83-196.00 62.83L-196.00 62.83Q-204.80 45.03-216.60 31.63L-216.60 31.63L-222.40 37.23Q-252.00 64.83-291.40 64.83L-291.40 64.83Q-301.40 64.83-308.90 63.33Q-316.40 61.83-316.40 59.23L-316.40 59.23Q-316.40 57.43-314.20 57.43L-314.20 57.43Q-312.80 57.43-310.80 58.23L-310.80 58.23Q-304.80 60.63-288.20 60.63L-288.20 60.63Q-258.40 60.63-231.80 37.23L-231.80 37.23Q-222.20 28.23-222.00 28.03L-222.00 28.03Q-240.80 26.63-253.60 23.03L-253.60 23.03Q-276.40 16.63-276.40 7.83L-276.40 7.83Q-276.40 4.83-273.10 2.83Q-269.80 0.83-264.40 0.83L-264.40 0.83Q-240.60 0.83-219.20 22.23L-219.20 22.23Q-217.40 22.23-216.60 22.43L-216.60 22.43Q-198.80 3.23-173.20-31.97L-173.20-31.97Q-164.20-44.17-155.20-55.57L-155.20-55.57Q-136.40-79.17-124.40-79.17L-124.40-79.17Q-116.60-79.17-116.60-72.37L-116.60-72.37Q-116.60-67.77-129.50-36.47Q-142.40-5.17-156.20 22.43Z"/><path xml:space="preserve" font-family="Mrs Saint Delafield" font-size="200" style="stroke: none; stroke-width: 0; stroke-dasharray: none; stroke-linecap: butt; stroke-dashoffset: 0; stroke-linejoin: miter; stroke-miterlimit: 4; is-custom-font: none; font-file-url: none; fill: rgb(255,255,255); fill-rule: nonzero; opacity: 1; white-space: pre;" d="M-103 28.03L-103 28.03L-103.40 25.83Q-103.40 24.83-99.20 24.83L-99.20 24.83Q-96.80 24.83-96.80 27.83Q-96.80 30.83-103.70 41.13Q-110.60 51.43-110.60 51.83Q-110.60 52.23-109.80 52.23Q-109 52.23-91.30 38.23Q-73.60 24.23-70 24.23Q-66.40 24.23-66.40 26.73Q-66.40 29.23-68.40 32.33Q-70.40 35.43-76.80 43.53Q-83.20 51.63-83.60 52.23Q-84 52.83-84 53.63Q-84 54.43-82.70 54.43Q-81.40 54.43-63 40.83Q-44.60 27.23-42 27.23Q-39.40 27.23-39.40 29.43L-39.40 29.43Q-39.40 33.43-48.20 43.43Q-57 53.43-57 56.13Q-57 58.83-54.90 58.83Q-52.80 58.83-44.40 53.23L-44.40 53.23Q-29.40 43.23-16.80 33.03L-16.80 33.03L-12.40 29.43Q-10.80 28.43-9.70 28.43Q-8.60 28.43-8.60 29.63L-8.60 29.63L-8.60 30.23Q-50.80 65.43-60.80 65.43L-60.80 65.43Q-66.60 65.43-66.60 60.63L-66.60 60.63Q-66.60 56.63-60.80 48.83Q-55 41.03-55 40.33Q-55 39.63-55.50 39.63Q-56 39.63-71.90 51.03Q-87.80 62.43-90.80 62.43L-90.80 62.43Q-92.20 62.43-93.20 61.33Q-94.20 60.23-94.20 59.03L-94.20 59.03Q-94.20 55.43-85.60 44.43L-85.60 44.43Q-77 33.63-77 32.63L-77 32.63Q-77 31.63-78.20 31.63L-78.20 31.63Q-79.60 31.63-106.60 53.63L-106.60 53.63L-116.60 61.63Q-119.20 63.83-120.50 63.83Q-121.80 63.83-123 63.13Q-124.20 62.43-124.20 61.03Q-124.20 59.63-120.70 54.23Q-117.20 48.83-111.60 41.03L-111.60 41.03Q-103 29.43-103 28.03Z"/><path xml:space="preserve" font-family="Mrs Saint Delafield" font-size="200" style="stroke: none; stroke-width: 0; stroke-dasharray: none; stroke-linecap: butt; stroke-dashoffset: 0; stroke-linejoin: miter; stroke-miterlimit: 4; is-custom-font: none; font-file-url: none; fill: rgb(255,255,255); fill-rule: nonzero; opacity: 1; white-space: pre;" d="M18 38.83L18 38.83Q16.80 38.83 16.80 37.93Q16.80 37.03 18.20 35.83L18.20 35.83Q24.80 30.43 24.80 26.03L24.80 26.03Q24.80 23.23 19.80 22.83L19.80 22.83Q10.80 23.03-1.70 35.83Q-14.20 48.63-14.20 55.03L-14.20 55.03Q-14.20 57.23-11.70 57.23Q-9.20 57.23-5 53.83L-5 53.83Q-1.20 51.43 9.20 41.83L9.20 41.83Q11.60 39.43 13.80 39.43L13.80 39.43Q16.60 39.43 16.60 42.03L16.60 42.03Q16.60 43.03 16 43.63Q15.40 44.23 13.80 46.13Q12.20 48.03 11 49.63L11 49.63Q7.40 54.83 7.40 56.43L7.40 56.43Q7.40 60.43 10.60 60.43L10.60 60.43Q14.80 60.43 26.40 52.73Q38 45.03 47.60 37.23L47.60 37.23L57.20 29.63Q58.60 28.63 59.80 28.63Q61 28.63 61 30.03L61 30.03L61 30.43Q45.60 43.43 28.50 54.83Q11.40 66.23 6 66.23L6 66.23Q-0.40 66.23-0.40 59.43L-0.40 59.43Q-0.40 57.83 0.20 56.43Q0.80 55.03 0.80 54.43Q0.80 53.83 0.40 53.63L0.40 53.63Q-0.20 53.63-7.30 59.03Q-14.40 64.43-19.70 64.43Q-25 64.43-25 58.83Q-25 53.23-17.50 43.73Q-10 34.23 2.60 26.43Q15.20 18.63 27.20 18.63L27.20 18.63Q30 18.63 31.90 20.03Q33.80 21.43 33.80 24.33Q33.80 27.23 28 33.03Q22.20 38.83 18 38.83Z"/><path xml:space="preserve" font-family="Mrs Saint Delafield" font-size="200" style="stroke: none; stroke-width: 0; stroke-dasharray: none; stroke-linecap: butt; stroke-dashoffset: 0; stroke-linejoin: miter; stroke-miterlimit: 4; is-custom-font: none; font-file-url: none; fill: rgb(255,255,255); fill-rule: nonzero; opacity: 1; white-space: pre;" d="M15.80 141.23L15.80 141.23Q20.60 141.23 31.80 130.03Q43 118.83 53.20 102.93Q63.40 87.03 64.80 76.03L64.80 76.03Q44.20 89.43 28.90 106.33Q13.60 123.23 13.60 138.23L13.60 138.23Q13.60 141.23 15.80 141.23ZM80.70 62.73Q86 60.23 87.60 60.23Q89.20 60.23 89.20 61.63Q89.20 63.03 86.80 64.03L86.80 64.03Q80.20 66.43 71.40 72.03L71.40 72.03L71.40 73.03Q71.40 85.03 59 103.03Q46.60 121.03 32.10 133.73Q17.60 146.43 10.80 146.43L10.80 146.43Q5.60 146.43 5.60 140.63L5.60 140.63Q5.60 132.23 11.30 122.33Q17 112.43 26.20 103.23L26.20 103.23Q44.20 84.63 65.20 71.43L65.20 71.43Q64.20 61.03 51.80 60.23L51.80 60.23Q48.80 60.23 48.80 58.43L48.80 58.43Q48.80 57.83 51.60 56.13Q54.40 54.43 60.60 50.63Q66.80 46.83 76 38.93Q85.20 31.03 85.20 26.43L85.20 26.43Q85.20 24.23 83.20 24.23L83.20 24.23Q78.60 24.23 65.60 34.63L65.60 34.63L59.40 39.63L58.60 36.63Q61 34.83 64 32.43L64 32.43Q82 17.63 90.80 17.63L90.80 17.63Q96.20 17.63 96.20 23.43L96.20 23.43Q96.20 35.23 59.80 55.43L59.80 55.43Q58.20 56.23 58.20 57.03Q58.20 57.83 58.60 57.83L58.60 57.83Q68.60 60.43 70.80 68.03L70.80 68.03Q75.40 65.23 80.70 62.73Z"/><path xml:space="preserve" font-family="Mrs Saint Delafield" font-size="200" style="stroke: none; stroke-width: 0; stroke-dasharray: none; stroke-linecap: butt; stroke-dashoffset: 0; stroke-linejoin: miter; stroke-miterlimit: 4; is-custom-font: none; font-file-url: none; fill: rgb(255,255,255); fill-rule: nonzero; opacity: 1; white-space: pre;" d="M146.10 2.43Q148 2.43 149.10 3.63Q150.20 4.83 150.20 7.03Q150.20 9.23 147.20 12.63Q144.20 16.03 142 16.03Q139.80 16.03 138.80 14.73Q137.80 13.43 137.80 11.73Q137.80 10.03 141 6.23Q144.20 2.43 146.10 2.43ZM158.20 33.03L162.60 29.43Q164.20 28.43 165.10 28.43Q166 28.43 166 29.63L166 29.63L166 30.23Q166.80 30.23 155.30 39.03Q143.80 47.83 130.70 56.63Q117.60 65.43 114.20 65.43L114.20 65.43Q108.40 65.43 108.40 60.63L108.40 60.63Q108.40 54.83 118.40 38.73Q128.40 22.63 133 22.63L133 22.63Q136.40 22.63 136.40 25.23Q136.40 27.83 127.20 39.43Q118 51.03 118 56.03L118 56.03Q118 58.83 120.10 58.83Q122.20 58.83 130.60 53.23L130.60 53.23Q145.60 43.23 158.20 33.03L158.20 33.03Z"/><path xml:space="preserve" font-family="Mrs Saint Delafield" font-size="200" style="stroke: none; stroke-width: 0; stroke-dasharray: none; stroke-linecap: butt; stroke-dashoffset: 0; stroke-linejoin: miter; stroke-miterlimit: 4; is-custom-font: none; font-file-url: none; fill: rgb(255,255,255); fill-rule: nonzero; opacity: 1; white-space: pre;" d="M253.40 29.63L253.40 30.23Q211.20 65.43 201.20 65.43L201.20 65.43Q195.40 65.43 195.40 60.63Q195.40 55.83 199.70 49.23Q204 42.63 208.30 37.53Q212.60 32.43 212.60 31.43Q212.60 30.43 212 30.43L212 30.43Q193.40 42.83 189.90 45.63Q186.40 48.43 178.50 54.83Q170.60 61.23 168.20 62.83Q165.80 64.43 163 64.43L163 64.43Q160.20 64.43 160.20 62.03L160.20 62.03Q160.20 59.23 171.40 44.43L171.40 44.43Q182.20 29.63 182.20 27.83L182.20 27.83Q182.20 27.43 181.50 27.43Q180.80 27.43 164.20 39.63L164.20 39.63L163.40 36.63Q177.60 25.23 182.60 22.03Q187.60 18.83 190.70 18.83Q193.80 18.83 193.80 21.83L193.80 21.83Q193.80 23.83 182.50 38.13Q171.20 52.43 171.20 53.53Q171.20 54.63 171.90 54.63Q172.60 54.63 194.70 38.53Q216.80 22.43 221.60 22.43L221.60 22.43Q223 22.43 224.30 23.53Q225.60 24.63 225.60 25.63L225.60 25.63Q225.60 28.03 215 41.53Q204.40 55.03 204.40 56.83Q204.40 58.63 206.90 58.63Q209.40 58.63 217.60 53.23L217.60 53.23Q232.60 43.43 245.20 33.03L245.20 33.03L249.60 29.43Q251 28.43 252.20 28.43Q253.40 28.43 253.40 29.63L253.40 29.63Z"/><path xml:space="preserve" font-family="Mrs Saint Delafield" font-size="200" style="stroke: none; stroke-width: 0; stroke-dasharray: none; stroke-linecap: butt; stroke-dashoffset: 0; stroke-linejoin: miter; stroke-miterlimit: 4; is-custom-font: none; font-file-url: none; fill: rgb(255,255,255); fill-rule: nonzero; opacity: 1; white-space: pre;" d="M314.20 33.63L318.80 29.63Q320.20 28.63 321.40 28.63Q322.60 28.63 322.60 30.03L322.60 30.03L322.60 30.43Q303.20 46.43 292.20 53.63L292.20 53.63L252.20 79.63L239.80 97.03Q211 136.43 211 139.43L211 139.43Q207.80 146.43 204.80 146.43L204.80 146.43Q201 146.43 201 141.43Q201 136.43 205.90 128.03Q210.80 119.63 215.60 114.43L215.60 114.43L234.60 94.43Q237 90.63 244.40 80.43Q251.80 70.23 254.20 66.83L254.20 66.83L262.80 54.03L263.20 53.23Q263.20 52.83 262.80 52.83L262.80 52.83Q251 62.63 243.20 62.63Q235.40 62.63 235.40 58.13Q235.40 53.63 241.40 46.23Q247.40 38.83 255.90 31.83Q264.40 24.83 274.70 19.73Q285 14.63 292.90 14.63Q300.80 14.63 300.80 20.23L300.80 20.23Q300.80 24.23 293.30 29.83Q285.80 35.43 284.10 35.43Q282.40 35.43 282.40 34.63L282.40 34.63Q282.40 33.43 284 32.43L284 32.43Q290.80 27.63 290.80 23.33Q290.80 19.03 287.20 19.03L287.20 19.03Q278.40 19.03 262.70 33.93Q247 48.83 247 55.03L247 55.03Q247 56.83 249.90 56.83Q252.80 56.83 259.80 52.13Q266.80 47.43 270.40 43.03L270.40 43.03L275.80 36.23Q276.80 34.83 278.40 34.83Q280 34.83 281.20 35.83Q282.40 36.83 282.40 37.83L282.40 37.83L258.20 71.43L287.80 52.83Q301 44.83 314.20 33.63L314.20 33.63Z"/></g>
<g transform="matrix(1 0 0 1 641.6667 476.2817)" style="" id="577017">
		
<path xml:space="preserve" font-family="Mrs Saint Delafield" font-size="120" font-weight="normal" style="stroke: none; stroke-width: 0; stroke-dasharray: none; stroke-linecap: butt; stroke-dashoffset: 0; stroke-linejoin: miter; stroke-miterlimit: 4; is-custom-font: none; font-file-url: none; fill: rgb(255,255,255); fill-rule: nonzero; opacity: 1; white-space: pre;" d="M-78.84-13.54L-78.84-13.54Q-78.84-14.62-80.76-14.74L-80.76-14.74Q-86.76-2.62-98.04 12.08Q-109.32 26.78-119.34 36.50Q-129.36 46.22-132.78 46.22Q-136.20 46.22-136.20 43.34L-136.20 43.34Q-136.20 36.62-119.58 16.28Q-102.96-4.06-82.32-21.58L-82.32-21.58Q-80.28-27.46-80.28-32.08Q-80.28-36.70-82.86-40.00Q-85.44-43.30-89.76-44.86L-89.76-44.86Q-97.44-47.62-105.96-47.62L-105.96-47.62Q-125.64-47.62-125.88-41.02L-125.88-41.02Q-125.88-38.50-122.88-36.64Q-119.88-34.78-115.50-33.34Q-111.12-31.90-106.74-30.16Q-102.36-28.42-99.30-25.18Q-96.24-21.94-96.24-18.22Q-96.24-14.50-97.38-14.50Q-98.52-14.50-98.52-15.94L-98.52-15.94Q-98.52-20.38-103.56-23.62Q-108.60-26.86-114.60-28.60Q-120.60-30.34-125.64-33.22Q-130.68-36.10-130.68-39.40Q-130.68-42.70-128.16-44.80Q-125.64-46.90-121.80-47.98L-121.80-47.98Q-114.12-49.90-107.88-49.90Q-101.64-49.90-96.54-49.06Q-91.44-48.22-86.52-46.24Q-81.60-44.26-78.60-40.42Q-75.60-36.58-75.60-31.30L-75.60-31.30Q-75.60-29.38-76.20-26.62L-76.20-26.62Q-47.64-49.30-30.48-49.30L-30.48-49.30Q-24.12-49.30-24.12-44.50L-24.12-44.50Q-24.12-38.86-31.74-29.32Q-39.36-19.78-49.56-12.34Q-59.76-4.90-66.36-4.90L-66.36-4.90Q-70.44-4.90-73.56-6.58L-73.56-6.58Q-73.68-6.70-74.04-6.70Q-74.40-6.70-74.40-3.04Q-74.40 0.62-74.22 4.28Q-74.04 7.94-73.20 14.12Q-72.36 20.30-70.80 24.68Q-69.24 29.06-66.12 32.42Q-63.00 35.78-58.98 35.78Q-54.96 35.78-46.44 31.94L-46.44 31.94Q-45.24 31.34-44.34 31.34Q-43.44 31.34-43.44 31.82L-43.44 31.82Q-43.44 32.90-45.24 33.74L-45.24 33.74Q-55.56 39.14-61.32 39.14Q-67.08 39.14-70.86 35.00Q-74.64 30.86-76.08 23.84Q-77.52 16.82-78 10.28Q-78.48 3.74-78.48-3.70Q-78.48-11.14-78.84-13.54ZM-77.52-22.18L-77.52-22.18Q-78.48-19.42-79.68-16.90L-79.68-16.90L-75.84-16.90Q-75.24-16.90-75.12-15.82Q-75-14.74-74.88-13.18Q-74.76-11.62-74.04-10.60Q-73.32-9.58-71.22-8.38Q-69.12-7.18-66.36-7.18L-66.36-7.18Q-60.84-7.18-52.14-14.68Q-43.44-22.18-37.08-31.12Q-30.72-40.06-30.72-44.14L-30.72-44.14Q-30.72-46.30-32.88-46.30L-32.88-46.30Q-47.88-46.30-77.52-22.18ZM-131.04 42.62L-131.04 42.62Q-128.28 42.62-119.28 33.38Q-110.28 24.14-99.84 9.74Q-89.40-4.66-84.24-16.54L-84.24-16.54Q-103.20-0.22-117.42 17.18Q-131.64 34.58-131.64 41.78L-131.64 41.78Q-131.64 42.62-131.04 42.62ZM-0.48 20.30L2.52 17.78Q3.36 17.18 4.08 17.18Q4.80 17.18 4.80 18.02L4.80 18.02L4.80 18.26Q-7.68 28.58-15.96 33.74Q-24.24 38.90-30.96 38.90L-30.96 38.90Q-36.36 38.90-36.36 33.62L-36.36 33.62Q-36.36 25.82-28.44 17.60Q-20.52 9.38-15.12 9.38L-15.12 9.38Q-12.12 9.38-12.12 12.74L-12.12 12.74Q-12.72 19.34-31.08 30.50L-31.08 30.50L-31.08 31.70Q-31.08 35.66-26.94 35.66Q-22.80 35.66-18.00 32.90L-18.00 32.90Q-8.64 27.38-0.48 20.30L-0.48 20.30ZM-18.24 13.10L-18.24 13.10Q-20.88 13.10-25.02 17.54Q-29.16 21.98-30.60 27.62L-30.60 27.62Q-24.84 24.14-20.88 20.24Q-16.92 16.34-16.92 14.72Q-16.92 13.10-18.24 13.10ZM28.68 20.18L31.68 17.78Q32.64 17.18 33.30 17.18Q33.96 17.18 33.96 18.02L33.96 18.02L33.96 18.26Q24.48 26.66 14.40 33.02Q4.32 39.38-2.40 39.38L-2.40 39.38Q-7.68 39.38-7.68 33.08Q-7.68 26.78-0.06 19.34Q7.56 11.90 16.44 11.90L16.44 11.90Q19.08 12.14 19.74 12.74Q20.40 13.34 20.40 14.42Q20.40 15.50 18.18 18.32Q15.96 21.14 14.16 21.14L14.16 21.14Q12.12 20.78 12.12 19.70L12.12 19.70Q12.12 19.22 13.20 18.14L13.20 18.14Q15.24 16.34 15.24 15.50Q15.24 14.66 13.92 14.66L13.92 14.66Q9.72 14.78 3.36 21.56Q-3.00 28.34-3.00 32.78L-3.00 32.78Q-3.00 36.14 1.38 36.14Q5.76 36.14 10.80 33.02L10.80 33.02Q19.68 27.62 28.68 20.18L28.68 20.18ZM44.82 1.46Q45.96 1.46 46.62 2.18Q47.28 2.90 47.28 4.22Q47.28 5.54 45.48 7.58Q43.68 9.62 42.36 9.62Q41.04 9.62 40.44 8.84Q39.84 8.06 39.84 7.04Q39.84 6.02 41.76 3.74Q43.68 1.46 44.82 1.46ZM52.08 19.82L54.72 17.66Q55.68 17.06 56.22 17.06Q56.76 17.06 56.76 17.78L56.76 17.78L56.76 18.14Q57.24 18.14 50.34 23.42Q43.44 28.70 35.58 33.98Q27.72 39.26 25.68 39.26L25.68 39.26Q22.20 39.26 22.20 36.38L22.20 36.38Q22.20 32.90 28.20 23.24Q34.20 13.58 36.96 13.58L36.96 13.58Q39 13.58 39 15.14Q39 16.70 33.48 23.66Q27.96 30.62 27.96 33.62L27.96 33.62Q27.96 35.30 29.22 35.30Q30.48 35.30 35.52 31.94L35.52 31.94Q44.52 25.94 52.08 19.82L52.08 19.82ZM97.20 17.78L97.20 18.14Q71.88 39.26 65.88 39.26L65.88 39.26Q62.40 39.26 62.40 36.44Q62.40 33.62 69 25.88Q75.60 18.14 75.60 15.98L75.60 15.98Q75.36 15.74 75.12 15.74L75.12 15.74Q71.76 15.74 64.32 20.90L64.32 20.90Q16.08 88.46 9.48 88.46L9.48 88.46Q8.16 88.46 7.26 87.56Q6.36 86.66 6.36 84.86L6.36 84.86Q6.36 76.58 22.68 57.14Q39.00 37.70 56.16 24.38L56.16 24.38L66.72 9.02L66.72 8.90Q66.72 8.54 66.24 8.54L66.24 8.54Q63.84 12.74 53.28 21.14L53.28 21.14L49.80 23.78L49.32 21.98Q58.44 14.54 66.24 6.62Q74.04-1.30 77.28-5.50L77.28-5.50L80.52-9.70Q82.20-11.98 84.24-11.98Q86.28-11.98 86.28-10.78L86.28-10.78Q86.28-10.30 85.98-9.94Q85.68-9.58 83.22-6.04Q80.76-2.50 75.96 4.28Q71.16 11.06 66.96 17.06L66.96 17.06Q73.92 13.10 77.46 13.10Q81 13.10 81 14.54L81 14.54Q81 19.34 71.40 29.30L71.40 29.30Q68.16 32.66 68.16 33.68Q68.16 34.70 69.90 34.70Q71.64 34.70 76.08 31.70L76.08 31.70Q84.84 25.82 92.28 19.82L92.28 19.82L94.92 17.66Q95.76 17.06 96.48 17.06Q97.20 17.06 97.20 17.78L97.20 17.78ZM11.04 84.50L11.04 84.50Q14.76 84.50 52.20 30.26L52.20 30.26Q36.36 43.70 23.34 59.60Q10.32 75.50 10.32 83.78L10.32 83.78Q10.32 84.50 11.04 84.50ZM122.64 20.30L125.64 17.78Q126.48 17.18 127.20 17.18Q127.92 17.18 127.92 18.02L127.92 18.02L127.92 18.26Q115.44 28.58 107.16 33.74Q98.88 38.90 92.16 38.90L92.16 38.90Q86.76 38.90 86.76 33.62L86.76 33.62Q86.76 25.82 94.68 17.60Q102.60 9.38 108.00 9.38L108.00 9.38Q111.00 9.38 111.00 12.74L111.00 12.74Q110.40 19.34 92.04 30.50L92.04 30.50L92.04 31.70Q92.04 35.66 96.18 35.66Q100.32 35.66 105.12 32.90L105.12 32.90Q114.48 27.38 122.64 20.30L122.64 20.30ZM104.88 13.10L104.88 13.10Q102.24 13.10 98.10 17.54Q93.96 21.98 92.52 27.62L92.52 27.62Q98.28 24.14 102.24 20.24Q106.20 16.34 106.20 14.72Q106.20 13.10 104.88 13.10ZM146.16 20.42L149.52 17.78Q150.48 17.18 151.14 17.18Q151.80 17.18 151.80 18.02L151.80 18.02L151.80 18.26Q142.56 26.06 132.30 32.90Q122.04 39.74 119.28 39.74Q116.52 39.74 114.66 38.72Q112.80 37.70 112.80 36.38Q112.80 35.06 113.52 34.16Q114.24 33.26 114.84 33.26Q115.44 33.26 116.82 35.12Q118.20 36.98 119.52 36.98L119.52 36.98Q122.28 36.98 123.84 31.10Q125.40 25.22 125.40 23.00Q125.40 20.78 125.10 20.78Q124.80 20.78 124.56 21.02L124.56 21.02L121.08 23.78L120.60 21.98Q128.16 15.98 129.36 13.94L129.36 13.94Q130.08 12.02 131.40 12.02L131.40 12.02Q132.24 12.02 132.24 12.62Q132.24 13.22 131.40 15.20Q130.56 17.18 129.18 24.14Q127.80 31.10 127.80 32.18Q127.80 33.26 128.40 33.26L128.40 33.26Q136.80 28.10 146.16 20.42L146.16 20.42Z"/></g>
<g transform="matrix(2.875 0 0 2.875 413.7667 475.0817)" id="643781">
<g style="" vector-effect="non-scaling-stroke">
		<g transform="matrix(1 0 0 1 0 17.0167)" id="Expanded">
<path style="stroke: none; stroke-width: 1; stroke-dasharray: none; stroke-linecap: butt; stroke-dashoffset: 0; stroke-linejoin: miter; stroke-miterlimit: 4; is-custom-font: none; font-file-url: none; fill: rgb(255,255,255); fill-rule: nonzero; opacity: 1;" transform=" translate(-24, -41.0168)" d="M 29 48 H 19 c -2.206 0 -4 -1.794 -4 -4 c 0 -1.826 2.605 -6.56 3.128 -7.489 c 0.171 -0.304 0.486 -0.497 0.834 -0.51 c 0.358 -0.037 0.678 0.154 0.87 0.444 l 1.123 1.686 l 2.188 -3.646 c 0.361 -0.602 1.354 -0.602 1.715 0 l 2.188 3.646 l 1.123 -1.686 c 0.192 -0.29 0.509 -0.484 0.87 -0.444 c 0.348 0.013 0.663 0.206 0.834 0.51 C 30.395 37.44 33 42.174 33 44 C 33 46.206 31.206 48 29 48 z M 19.09 38.938 C 17.981 41.069 17 43.301 17 44 c 0 1.103 0.897 2 2 2 h 10 c 1.103 0 2 -0.897 2 -2 c 0 -0.699 -0.981 -2.932 -2.09 -5.062 l -1.078 1.617 c -0.189 0.284 -0.52 0.432 -0.855 0.445 c -0.343 -0.009 -0.657 -0.191 -0.834 -0.485 L 24 36.943 l -2.143 3.571 c -0.177 0.294 -0.491 0.477 -0.834 0.485 c -0.336 -0.016 -0.666 -0.161 -0.855 -0.445 L 19.09 38.938 z" stroke-linecap="round"/>
</g>
		<g transform="matrix(1 0 0 1 0 -6)" id="Expanded">
<path style="stroke: none; stroke-width: 1; stroke-dasharray: none; stroke-linecap: butt; stroke-dashoffset: 0; stroke-linejoin: miter; stroke-miterlimit: 4; is-custom-font: none; font-file-url: none; fill: rgb(255,255,255); fill-rule: nonzero; opacity: 1;" transform=" translate(-24, -18)" d="M 35 32 H 13 c -2.757 0 -5 -2.243 -5 -5 V 5 c 0 -0.553 0.447 -1 1 -1 h 30 c 0.553 0 1 0.447 1 1 v 22 C 40 29.757 37.757 32 35 32 z M 10 6 v 21 c 0 1.654 1.346 3 3 3 h 22 c 1.654 0 3 -1.346 3 -3 V 6 H 10 z" stroke-linecap="round"/>
</g>
		<g transform="matrix(1 0 0 1 -17 -13)" id="Expanded">
<path style="stroke: none; stroke-width: 1; stroke-dasharray: none; stroke-linecap: butt; stroke-dashoffset: 0; stroke-linejoin: miter; stroke-miterlimit: 4; is-custom-font: none; font-file-url: none; fill: rgb(255,255,255); fill-rule: nonzero; opacity: 1;" transform=" translate(-7, -11)" d="M 9 12 H 5 c -0.553 0 -1 -0.447 -1 -1 s 0.447 -1 1 -1 h 4 c 0.553 0 1 0.447 1 1 S 9.553 12 9 12 z" stroke-linecap="round"/>
</g>
		<g transform="matrix(1 0 0 1 17 -13.667)" id="Expanded">
<path style="stroke: none; stroke-width: 1; stroke-dasharray: none; stroke-linecap: butt; stroke-dashoffset: 0; stroke-linejoin: miter; stroke-miterlimit: 4; is-custom-font: none; font-file-url: none; fill: rgb(255,255,255); fill-rule: nonzero; opacity: 1;" transform=" translate(-41, -10.333)" d="M 43 11.333 h -4 c -0.553 0 -1 -0.447 -1 -1 s 0.447 -1 1 -1 h 4 c 0.553 0 1 0.447 1 1 S 43.553 11.333 43 11.333 z" stroke-linecap="round"/>
</g>
		<g transform="matrix(1 0 0 1 0 -19)" id="Expanded">
<path style="stroke: none; stroke-width: 1; stroke-dasharray: none; stroke-linecap: butt; stroke-dashoffset: 0; stroke-linejoin: miter; stroke-miterlimit: 4; is-custom-font: none; font-file-url: none; fill: rgb(255,255,255); fill-rule: nonzero; opacity: 1;" transform=" translate(-24, -5)" d="M 41 6 H 7 C 6.447 6 6 5.553 6 5 s 0.447 -1 1 -1 h 34 c 0.553 0 1 0.447 1 1 S 41.553 6 41 6 z" stroke-linecap="round"/>
</g>
		<g transform="matrix(1 0 0 1 0 -21)" id="Expanded">
<path style="stroke: none; stroke-width: 1; stroke-dasharray: none; stroke-linecap: butt; stroke-dashoffset: 0; stroke-linejoin: miter; stroke-miterlimit: 4; is-custom-font: none; font-file-url: none; fill: rgb(255,255,255); fill-rule: nonzero; opacity: 1;" transform=" translate(-24, -3)" d="M 28 6 c -0.553 0 -1 -0.447 -1 -1 c 0 -1.654 -1.346 -3 -3 -3 s -3 1.346 -3 3 c 0 0.553 -0.447 1 -1 1 s -1 -0.447 -1 -1 c 0 -2.757 2.243 -5 5 -5 s 5 2.243 5 5 C 29 5.553 28.553 6 28 6 z" stroke-linecap="round"/>
</g>
</g>
</g>
<g transform="matrix(1.8292 0 0 1.8292 192.4039 475.899)" id="383193">
<path style="stroke: none; stroke-width: 1; stroke-dasharray: none; stroke-linecap: butt; stroke-dashoffset: 0; stroke-linejoin: miter; stroke-miterlimit: 4; is-custom-font: none; font-file-url: none; fill: rgb(255,255,255); fill-rule: nonzero; opacity: 1;" vector-effect="non-scaling-stroke" transform=" translate(-50, -50)" d="M 66.57 78.17 L 62.89 65.71 V 65.6 c -0.7 -1.61 -1.73 -4 -4.14 -4.24 l -1.16 -3.61 L 64.82 17 l -3.44 -4 H 38.62 l -3.45 4 l 7.39 40.73 l -1.31 3.53 c -2 0.19 -3.49 1.8 -4.21 4.39 l -3.61 12.5 c 0 2.2 1.57 4.05 4.57 4.55 V 87 h 6 V 83 H 56 v 4 h 6 V 82.7 C 65 82.21 66.57 80.36 66.57 78.17 Z M 44.29 59 H 55.85 l 0.79 2 H 43.41 Z m 11.43 -2 H 44.44 L 42.13 44.15 L 56.43 19 h 6 Z M 39.55 30 l 6.2 -11 h 3 L 40.26 33.84 Z m 1.27 7 L 51 19 h 3.11 L 41.57 41 Z M 39.71 15 H 60.29 l 1.62 2 H 38.09 Z m 3.73 4 L 39 26.76 L 37.57 19 Z M 42 85 H 40 V 83 h 2 Z m 18 0 H 58 V 83 h 2 Z m 0.9 -4 H 39.1 c -2 0 -3.69 -1.23 -3.79 -2.62 L 39 66.14 C 39.27 65 40 63 41.67 63 H 58.33 c 1.29 0 2 1.47 2.73 3.18 L 64.69 78.3 C 64.58 79.69 62.89 81 60.9 81 Z M 41 78 h 7 V 72 H 41 Z m 2 -4 h 3 v 2 H 43 Z m 9 4 h 7 V 72 H 52 Z m 2 -4 h 3 v 2 H 54 Z m 3 -7 H 43 V 65 H 57 Z" stroke-linecap="round"/>
</g>
<g transform="matrix(6.1397 0 0 6.1397 299.1479 476.045)" id="638619">
<path style="stroke: none; stroke-width: 1; stroke-dasharray: none; stroke-linecap: butt; stroke-dashoffset: 0; stroke-linejoin: miter; stroke-miterlimit: 4; is-custom-font: none; font-file-url: none; fill: rgb(255,255,255); fill-rule: evenodd; opacity: 1;" vector-effect="non-scaling-stroke" transform=" translate(-587.5, -527)" d="M 587 517.5 L 586 516 L 586 523.012014 L 584 524.917837 L 582.002367 523.012014 L 582.002367 516 L 581 517.5 L 581 523.5 L 583.5 526 C 583.5 526 583.25 528.851328 583.25 531.5 C 583.25 534.148672 583.5 538 583.5 538 L 584.5 538 C 584.5 538 584.75 534.128897 584.75 531.5 C 584.75 528.871103 584.5 526 584.5 526 L 587 523.5 L 587 517.5 Z M 591.176471 516.988817 C 591.176471 516.988817 593.058824 516.988817 593.058824 520.978407 C 593.058824 525.13925 592.130859 525.711044 592.130859 525.711044 L 593.058824 525.711044 C 593.058824 525.711044 594 525.221217 594 520.978407 C 594 519.458309 593.551585 516 590.235294 516 L 590.235294 526.202603 C 590.235294 526.202603 590 529.151952 590 531.609743 C 590 534.067534 590.235294 538 590.235294 538 L 591.176471 538 C 591.176471 538 591.411765 534.176973 591.411765 531.609743 C 591.411765 529.042513 591.176471 526.202603 591.176471 526.202603 L 591.176471 516.988817 L 591.176471 516.988817 Z M 583.5 516 L 583.5 523 L 584.5 523 L 584.5 516 L 583.5 516 L 583.5 516 Z" stroke-linecap="round"/>
</g>
</svg>